<svg width="160" height="155" viewBox="0 0 840 807" fill="none" xmlns="http://www.w3.org/2000/svg">
<g filter="url(#filter0_d_20_116)">
<path d="M243.235 755.404L210.845 737.726L217.6 725.35L231.014 700.772L256.381 714.617C264.281 718.929 270.074 725.849 272.633 734.31C275.369 742.866 274.465 751.828 270.201 759.64C265.937 767.453 258.889 773.061 250.165 775.478C241.713 777.814 232.71 776.774 224.81 772.462L199.618 758.713L206.325 746.424L234.063 761.563C243.248 764.981 253.536 761.368 258.088 753.029C262.591 744.778 260.064 734.171 252.22 728.295L236.683 719.816L229.976 732.104L244.284 739.913L244.22 741.701L243.563 751.254L243.235 755.404Z" fill="#1D6378"/>
<path d="M142.334 712.672L131.8 703.451L159.003 672.376C162.494 668.388 167.283 665.802 172.494 665.314C174.395 665.116 176.304 665.06 178.299 665.211C185.495 665.796 192.127 668.545 197.619 673.353C203.112 678.161 206.789 684.436 208.246 691.426C208.659 693.383 208.856 695.283 208.922 697.334C209.052 702.499 207.188 707.512 203.632 711.576L176.495 742.576L165.961 733.355L189.804 706.116C195.337 699.796 194.963 689.899 188.849 684.282C188.699 684.15 188.548 684.019 188.398 683.887C188.247 683.755 188.097 683.623 187.946 683.492C181.57 678.175 171.776 679.039 166.178 685.434L142.334 712.672Z" fill="#1D6378"/>
<path d="M115.961 685.117L106.93 674.42L157.437 631.779L166.468 642.477L115.961 685.117Z" fill="#1D6378"/>
<path d="M128.319 616.307L107.849 583.699L119.706 576.256L147.619 620.72L91.2977 656.077L83.8542 644.22L128.319 616.307Z" fill="#1D6378"/>
<path d="M36.0371 545.504L31.1457 532.387L92.8926 509.362L97.784 522.48L71.5486 532.263L82.1699 560.747L108.405 550.964L113.297 564.082L51.5497 587.106L46.6584 573.988L68.9585 565.673L58.3372 537.189L36.0371 545.504Z" fill="#1D6378"/>
<path d="M24.0423 505.45L15.6222 447.054L29.4789 445.056L37.899 503.452L26.6156 505.079L24.0423 505.45ZM59.4574 486.198L73.512 484.172L67.0899 439.633L80.9466 437.635L89.3667 496.031L78.0834 497.658L75.51 498.029L47.4997 502.067L45.6007 488.196L40.0206 449.497L53.8773 447.499L59.4574 486.198Z" fill="#1D6378"/>
<path d="M80.9297 361.985L85.1039 359.902L83.8312 376.253L82.5727 376.957L53.4376 391.741C53.5063 392.148 53.5749 392.554 53.6436 392.961C53.628 393.16 53.6125 393.359 53.6048 393.459C53.6967 393.567 53.6889 393.666 53.6812 393.766C53.6657 393.965 53.6501 394.165 53.7343 394.372C53.7266 394.472 53.7188 394.571 53.711 394.671C53.6878 394.97 53.7719 395.177 53.7564 395.377C53.7331 395.676 53.7176 395.875 53.7021 396.075L53.794 396.182L53.7785 396.381C53.763 396.581 53.7475 396.78 53.7319 396.98C53.7319 396.98 53.7242 397.079 53.7164 397.179C53.7009 397.378 53.6931 397.478 53.6776 397.678L53.6621 397.877L53.6543 397.977L53.6466 398.076C53.6311 398.276 53.7152 398.483 53.6997 398.682L53.0246 407.356L81.2392 409.552L80.1528 423.51L37.8807 420.22L39.6422 397.588C39.8362 395.096 39.5318 392.564 38.813 390.201C38.721 390.094 38.721 390.094 38.7288 389.994C37.9025 387.723 36.7539 385.728 35.1909 383.901C34.0954 382.512 32.6853 381.299 31.16 380.278L30.4383 389.55L28.1102 419.459L14.1524 418.373L18.4594 363.04L20.9596 363.134C21.6653 363.089 22.4628 363.151 23.2604 363.213C25.6532 363.399 28.0304 363.785 30.3766 364.569C36.4571 366.347 41.7918 369.972 45.9291 374.807C46.3888 375.345 46.6568 375.767 47.0246 376.196C47.1165 376.304 47.3004 376.519 47.3923 376.626C47.3923 376.626 47.3846 376.726 47.4842 376.734C47.5684 376.941 47.7523 377.156 47.8442 377.263C47.9284 377.47 48.0204 377.578 48.1045 377.785C48.2042 377.793 48.2962 377.9 48.2884 378L48.3803 378.107C48.4723 378.215 48.5642 378.322 48.5565 378.422L80.9297 361.985Z" fill="#1D6378"/>
<path d="M87.7952 346.827L53.1011 336.149L70.5998 326.887L91.9132 333.446L87.7952 346.827ZM40.8271 273.361L41.7096 270.494L105.268 290.055L101.149 303.435L67.0289 292.934L72.0204 302.213L73.8435 305.808L74.3728 306.808L76.1224 309.962L77.2838 312.308L65.5347 318.527L57.4103 322.827L39.9116 332.09L24.2371 327.266L25.2372 324.016L41.986 315.151L58.3598 306.484L40.8271 273.361Z" fill="#1D6378"/>
<path d="M53.1714 244.937L82.1647 193.552L94.3577 200.432L65.3643 251.817L55.4358 246.215L53.1714 244.937ZM92.9722 251.319L105.339 258.297L127.453 219.106L139.646 225.985L110.653 277.37L100.724 271.768L98.4596 270.49L73.8123 256.583L80.7792 244.439L99.9934 210.386L112.186 217.266L92.9722 251.319Z" fill="#1D6378"/>
<path d="M183.002 122.43C188.427 117.849 196.062 116.505 202.736 118.983C206.047 120.114 208.928 122.13 211.187 124.804C213.445 127.478 214.952 130.656 215.577 134.186C216.904 141.181 214.237 148.407 208.813 152.989L193.611 165.829C186.888 171.508 177.427 171.775 170.444 167.072C169.106 166.107 167.856 164.938 166.694 163.563L177.161 154.722C178.709 156.556 181.146 157.116 183.202 156.296L199.779 142.293C202.301 140.164 202.545 136.423 200.415 133.902C198.286 131.381 194.557 130.996 192.036 133.126L177.521 145.386C173.243 148.999 167.645 150.586 162.161 149.982C160.687 149.787 159.226 149.451 157.711 148.898C154.477 147.703 151.595 145.686 149.337 143.012C147.078 140.338 145.572 137.16 144.935 133.771C143.543 126.7 146.21 119.474 151.71 114.828L167.142 101.793C173.865 96.1148 183.325 95.8472 190.233 100.616C191.647 101.515 192.897 102.685 194.058 104.06L183.592 112.9C182.044 111.067 179.607 110.507 177.475 111.392L160.744 125.523C158.223 127.652 157.903 131.457 160.032 133.978C162.161 136.499 165.966 136.82 168.487 134.691L183.002 122.43Z" fill="#1D6378"/>
<path d="M235.341 126.996L237.344 82.3225L252.263 92.5458L251.002 122.104L250.955 123.58L235.198 131.423L235.341 126.996ZM299.976 94.8231L303.594 97.3787L287.838 105.221L286.632 104.369L264.21 88.9449L253.177 81.3671L252.82 81.0981L237.857 70.7853L237.904 69.3095L238.373 57.4592L238.376 55.894L241.419 54.3789L242.58 55.3649L252.407 62.0908L299.976 94.8231Z" fill="#1D6378"/>
<path d="M316.895 93.9128L308.587 58.5764L325.419 69.0005L330.523 90.7085L316.895 93.9128ZM340.218 20.5268L353.846 17.3225L368.975 81.6679L365.665 82.4461L353.762 75.0748L333.803 62.7148L322.261 55.5668L305.428 45.1427L303.506 36.9657L302.064 30.8329L301.675 29.178L304.984 28.3999L348.366 55.1818L340.218 20.5268Z" fill="#1D6378"/>
<path d="M418.741 78.6789L404.745 79.0202L403.717 36.8327L417.712 36.4914L418.741 78.6789ZM380.943 13.5811L440.425 12.1304L440.767 26.1262L417.474 26.6943L403.478 27.0357L381.284 27.5769L380.943 13.5811Z" fill="#1D6378"/>
<path d="M500.926 20.9317C518.667 24.5165 530.243 41.9545 526.658 59.6959C523.054 77.5354 505.635 89.0131 487.894 85.4284C470.054 81.8238 458.557 64.5037 462.161 46.6642C465.746 28.9227 483.086 17.3272 500.926 20.9317ZM513.131 56.9628C515.211 46.6708 508.485 36.5379 498.193 34.4584C487.803 32.3591 477.67 39.0855 475.59 49.3775C473.491 59.7675 480.217 69.9004 490.607 71.9997C500.899 74.0793 511.032 67.3529 513.131 56.9628Z" fill="#1D6378"/>
<path d="M584.722 75.8658C591.196 78.7811 595.704 85.0882 596.349 92.1786C596.759 95.6531 596.183 99.1228 594.746 102.314C593.309 105.506 591.092 108.236 588.178 110.324C582.441 114.54 574.772 115.254 568.298 112.338L550.153 104.167C542.129 100.554 537.804 92.1356 539.033 83.8055C539.325 82.1824 539.841 80.5502 540.58 78.9089L553.072 84.5342C552.086 86.7226 552.633 89.1621 554.26 90.6627L574.046 99.5729C577.055 100.928 580.535 99.5336 581.89 96.5246C583.245 93.5156 581.983 89.9861 578.974 88.6311L561.649 80.8296C556.543 78.5302 552.696 74.1656 550.873 68.958C550.413 67.5444 550.085 66.0807 549.931 64.4757C549.613 61.0422 550.188 57.5725 551.625 54.3812C553.062 51.1898 555.279 48.4592 558.061 46.4218C563.839 42.1145 571.509 41.4007 578.074 44.3571L596.492 52.6514C604.516 56.2647 608.841 64.6829 607.521 72.9719C607.32 74.6361 606.804 76.2683 606.065 77.9096L593.573 72.2843C594.559 70.0959 594.012 67.6564 592.294 66.1148L572.325 57.1225C569.316 55.7675 565.746 57.1207 564.391 60.1297C563.036 63.1387 564.389 66.7092 567.398 68.0642L584.722 75.8658Z" fill="#1D6378"/>
<path d="M665.548 127.25L667.374 125.4L705.168 162.7L695.333 172.664L667.505 145.198L647.696 165.269L637.731 155.435L657.54 135.364L665.548 127.25ZM716.251 159.869L674.258 118.425L684.093 108.46L726.085 149.905L716.251 159.869Z" fill="#1D6378"/>
<path d="M768.851 209.857L776.486 221.592L741.868 244.115C737.426 247.006 732.115 248.194 726.966 247.249C725.084 246.923 723.231 246.459 721.352 245.772C714.585 243.255 708.949 238.81 704.967 232.691C700.986 226.572 699.151 219.534 699.647 212.412C699.78 210.416 700.106 208.534 700.6 206.542C701.877 201.536 705.031 197.217 709.558 194.272L744.091 171.803L751.727 183.538L721.384 203.28C714.343 207.861 712.016 217.487 716.375 224.553C716.484 224.721 716.593 224.888 716.702 225.056C716.811 225.224 716.92 225.391 717.03 225.559C721.724 232.407 731.383 234.235 738.508 229.599L768.851 209.857Z" fill="#1D6378"/>
<path d="M745.352 277.996L759.335 313.867L746.292 318.952L727.223 270.037L789.181 245.884L794.266 258.927L745.352 277.996Z" fill="#1D6378"/>
<path d="M766.32 343.556L773.086 381.456L759.304 383.917L750.078 332.234L815.543 320.548L818.003 334.33L766.32 343.556Z" fill="#1D6378"/>
<path d="M780.272 395.577L792.468 395.276L793.113 421.469L780.917 421.769L780.272 395.577Z" fill="#1D6378"/>
<path d="M795.203 478.807C794.23 485.84 789.449 491.943 782.827 494.56C779.609 495.932 776.118 496.358 772.651 495.878C769.184 495.398 765.939 494.041 763.115 491.833C757.453 487.517 754.607 480.359 755.58 473.326L758.307 453.614C759.513 444.897 766.371 438.375 774.71 437.207C776.35 437.03 778.061 437.065 779.844 437.311L777.967 450.882C775.59 450.553 773.403 451.765 772.422 453.749L769.448 475.245C768.996 478.513 771.314 481.459 774.583 481.911C777.852 482.363 780.883 480.158 781.335 476.889L783.939 458.068C784.706 452.521 787.81 447.6 792.293 444.384C793.519 443.544 794.831 442.817 796.328 442.216C799.532 440.943 803.024 440.518 806.49 440.997C809.957 441.477 813.202 442.835 815.941 444.93C821.702 449.26 824.548 456.417 823.561 463.549L820.793 483.559C819.587 492.276 812.729 498.798 804.404 499.867C802.75 500.143 801.039 500.108 799.256 499.861L801.133 486.291C803.511 486.62 805.697 485.408 806.692 483.324L809.693 461.631C810.145 458.362 807.841 455.318 804.572 454.865C801.303 454.413 798.259 456.718 797.806 459.987L795.203 478.807Z" fill="#1D6378"/>
<path d="M737.002 540.89L741.837 527.752L781.441 542.326L776.606 555.464L737.002 540.89ZM811.443 529.711L790.895 585.55L777.756 580.715L785.803 558.849L790.638 545.71L798.305 524.876L811.443 529.711Z" fill="#1D6378"/>
<path d="M725.816 579.224L746.147 619.053L728.126 617.536L714.617 591.215L713.929 589.908L723.752 575.305L725.816 579.224ZM685.518 639.132L681.11 638.698L690.933 624.094L692.403 624.239L719.518 626.57L732.854 627.707L733.298 627.764L751.402 629.337L752.09 630.643L757.538 641.177L758.309 642.539L756.411 645.361L754.915 645.077L743.048 644.085L685.518 639.132Z" fill="#1D6378"/>
<path d="M651.289 702.174L640.34 711.983L638.824 708.642C635.984 702.325 635.301 695.418 636.67 688.553C638.187 681.555 641.784 675.379 647.072 670.642C653.031 665.304 660.634 662.251 668.714 662.129C676.579 662.065 684.295 664.684 690.319 669.76C691.536 670.818 692.745 672.017 693.812 673.209C694.88 674.401 695.806 675.585 696.725 676.91C701.11 683.454 703.01 691.419 702.011 699.295C701.078 707.247 697.203 714.611 691.245 719.949C685.808 724.82 679.059 727.778 671.803 728.371C664.763 728.905 657.564 727.164 651.612 723.367L648.665 721.576L659.465 711.901L661.054 712.625C667.959 715.837 676.168 714.659 681.903 709.522C688.681 703.45 690.295 693.411 685.622 685.648C684.978 684.48 684.252 683.519 683.385 682.551C682.517 681.583 681.509 680.606 680.485 679.913C673.272 674.559 663.117 675.064 656.414 681.069C650.977 685.94 648.789 693.539 650.809 700.59L651.289 702.174Z" fill="#1D6378"/>
<path d="M631.23 764.68L623.737 750.997L629.292 731.993L643.51 757.955L631.23 764.68ZM562.436 732.122L556.376 730.424L573.742 720.913L574.78 721.143L605.099 730.079L607.598 721.527L599.529 706.792L611.808 700.067L622.663 719.889L613.736 750.431L613.784 750.519L605.444 778.801L588.078 788.312L589.863 782.203L601.171 743.517L562.436 732.122Z" fill="#1D6378"/>
</g>
<defs>
<filter id="filter0_d_20_116" x="0.652344" y="2.63037" width="839.149" height="803.477" filterUnits="userSpaceOnUse" color-interpolation-filters="sRGB">
<feFlood flood-opacity="0" result="BackgroundImageFix"/>
<feColorMatrix in="SourceAlpha" type="matrix" values="0 0 0 0 0 0 0 0 0 0 0 0 0 0 0 0 0 0 127 0" result="hardAlpha"/>
<feOffset dy="4"/>
<feGaussianBlur stdDeviation="6.75"/>
<feComposite in2="hardAlpha" operator="out"/>
<feColorMatrix type="matrix" values="0 0 0 0 0.77755 0 0 0 0 0.611753 0 0 0 0 0.879167 0 0 0 1 0"/>
<feBlend mode="normal" in2="BackgroundImageFix" result="effect1_dropShadow_20_116"/>
<feBlend mode="normal" in="SourceGraphic" in2="effect1_dropShadow_20_116" result="shape"/>
</filter>
</defs>
</svg>
