<svg width="50" height="50" viewBox="0 0 1273 1273" fill="none" xmlns="http://www.w3.org/2000/svg">
<path d="M497.703 477.875H378.734C367.789 477.875 358.906 486.758 358.906 497.703V933.922C358.906 944.867 367.789 953.75 378.734 953.75H497.703C508.648 953.75 517.531 944.867 517.531 933.922V497.703C517.531 486.758 508.648 477.875 497.703 477.875ZM477.875 914.094H398.562V517.531H477.875V914.094Z" fill="black"/>
<path d="M438.219 279.594C394.478 279.594 358.906 315.165 358.906 358.906C358.906 402.647 394.478 438.219 438.219 438.219C481.96 438.219 517.531 402.647 517.531 358.906C517.531 315.165 481.96 279.594 438.219 279.594ZM438.219 398.562C416.329 398.562 398.562 380.757 398.562 358.906C398.562 337.056 416.329 319.25 438.219 319.25C460.109 319.25 477.875 337.056 477.875 358.906C477.875 380.757 460.109 398.562 438.219 398.562Z" fill="black"/>
<path d="M775.892 477.319C754.715 477.319 732.389 482.038 714.266 490.009C711.292 482.871 704.193 477.875 695.984 477.875H577.016C566.071 477.875 557.188 486.758 557.188 497.703V933.921C557.188 944.867 566.071 953.75 577.016 953.75H695.984C706.929 953.75 715.812 944.867 715.812 933.921L715.733 669.771C715.733 669.652 715.257 656.447 723.664 647.365C730.287 640.148 741.589 636.5 757.214 636.5C783.07 636.5 795.125 647.564 795.125 671.357V933.921C795.125 944.867 804.008 953.75 814.953 953.75H933.922C944.867 953.75 953.75 944.867 953.75 933.921V662.593C953.75 525.859 857.94 477.319 775.892 477.319ZM914.094 914.093H834.781V671.357C834.781 625.396 805.079 596.843 757.214 596.843C730.089 596.843 708.992 604.775 694.517 620.439C674.411 642.21 675.958 669.85 676.156 671.357V914.093H596.844V517.531H676.156V531.609C676.156 542.554 685.039 551.437 695.984 551.437C705.7 551.437 713.75 544.457 715.456 535.257C720.77 529.467 744.087 517.015 775.852 517.015C808.251 517.015 914.054 527.524 914.054 662.593L914.094 914.093Z" fill="black"/>
<path d="M636.5 0.611816C285.86 0.611816 0.651855 285.899 0.651855 636.5C0.651855 987.101 285.86 1272.39 636.5 1272.39C987.141 1272.39 1272.35 987.101 1272.35 636.5C1272.35 285.899 987.141 0.611816 636.5 0.611816ZM636.5 1229.96C309.257 1229.96 43.0047 963.743 43.0047 636.5C43.0047 309.256 309.257 43.044 636.5 43.044C963.744 43.044 1230 309.256 1230 636.5C1230 963.743 963.744 1229.96 636.5 1229.96Z" fill="black"/>
</svg>
