<svg width="428" height="650" viewBox="0 0 428 650" fill="none" xmlns="http://www.w3.org/2000/svg">
<path d="M143.1 207.7H253.8V250V334H167.1C140.1 334 114.9 324.1 96 305.5C76.5 286.9 66 262 66 235.3C66 208.6 76.5 183.7 96 164.8C114.9 146.5 140.1 136.3 167.1 136.3H253.2V178.3H158.4C129.3 182.5 107.4 206.8 107.4 235.3C107.4 263.5 129.3 287.8 158.4 292H211.5V250H162.6L160.2 245.2L148.2 219.1L143.1 207.7Z" fill="#1D6378"/>
<path d="M320 344C341.3 344 361.4 355.7 371.9 374.3C377.3 383.3 380 393.5 380 404C380 414.5 377.3 424.7 371.9 434C361.4 452.6 341.3 464 320 464H260.3C233.9 464 211.7 446.3 204.8 422C203.6 417.2 203 412.1 203 406.7H244.1C244.1 413.9 248.6 419.9 254.9 422H320C329.9 422 337.7 413.9 337.7 404C337.7 394.1 329.9 386 320 386H263C246.2 386 230.3 378.8 218.9 366.8C215.9 363.5 213.2 359.9 210.8 355.7C205.7 346.7 203 336.5 203 326C203 315.5 205.7 305.3 210.8 296.3C221.3 277.4 241.4 266 263 266H323.6C350 266 372.2 283.7 378.8 308C380.3 312.8 380.9 317.9 380.9 323.3H339.8C339.8 316.1 335.3 310.1 328.7 308H263C253.1 308 245 316.1 245 326C245 335.9 253.1 344 263 344H320Z" fill="#1D6378"/>
<path d="M411.323 8.85359L241.581 353.76L213.446 338.425L411.323 8.85359Z" fill="#1D6378"/>
<path d="M16.2457 640.554L185.914 295.612L214.053 310.941L16.2457 640.554Z" fill="#1D6378"/>
<rect x="313.011" y="95.2833" width="40.0112" height="559.868" transform="rotate(28.3068 313.011 95.2833)" fill="white"/>
<path d="M254.127 328.277L254.322 334.815L251.218 334.136L254.127 328.277Z" fill="white"/>
</svg>
