<svg width="50" height="50" viewBox="0 0 1193 1193" fill="none" xmlns="http://www.w3.org/2000/svg">
<circle cx="596.5" cy="596.5" r="578.5" fill="white" stroke="black" stroke-width="36"/>
<path d="M466.286 399.203C473.866 399.406 482.27 399.817 490.266 417.572C495.568 429.392 504.499 451.152 511.775 468.878C517.439 482.671 522.095 494.022 523.26 496.345C525.924 501.65 527.564 507.772 524.08 514.914C523.67 515.756 523.284 516.561 522.907 517.336C520.115 523.139 518.126 527.271 513.424 532.667C511.493 534.889 509.48 537.322 507.474 539.747C503.946 544.012 500.442 548.248 497.438 551.24C492.11 556.541 486.574 562.261 492.722 572.872C498.874 583.483 520.393 618.382 552.162 646.541C586.313 676.96 616.01 689.78 631.025 696.258C633.937 697.518 636.299 698.538 638.031 699.4C648.691 704.705 655.042 703.889 661.19 696.747C667.343 689.602 687.834 665.724 695.01 655.113C701.979 644.502 709.15 646.135 718.99 649.808C728.826 653.48 781.293 679.194 791.949 684.499C794.054 685.548 796.026 686.493 797.853 687.372C805.265 690.928 810.307 693.344 812.445 696.95C815.109 701.439 815.109 722.665 806.297 747.562C797.281 772.456 753.829 796.334 734.154 798.17C732.289 798.349 730.437 798.572 728.527 798.8C710.497 800.985 687.611 803.753 606.059 771.64C505.574 732.111 439.243 634.028 425.833 614.2C424.774 612.633 424.045 611.555 423.655 611.033L423.428 610.73C417.327 602.561 380 552.596 380 501.041C380 451.716 404.288 426.037 415.366 414.324C416.068 413.582 416.717 412.896 417.303 412.263C427.139 401.653 438.618 399 445.791 399C452.966 399 460.138 399 466.286 399.203Z" fill="black"/>
<path fill-rule="evenodd" clip-rule="evenodd" d="M188.145 986.98C184.756 999.301 195.961 1010.67 208.307 1007.44L399.163 957.521C459.408 990.199 527.236 1007.56 596.295 1007.56H596.502C823.755 1007.56 1009 823.115 1009 596.386C1009 486.492 966.167 383.134 888.302 305.513C810.433 227.895 706.951 185 596.498 185C369.247 185 184 369.448 184 596.183C183.974 668.31 202.984 739.176 239.122 801.667L188.145 986.98ZM299.027 818.195C303.452 802.111 301.241 784.919 292.892 770.478C262.232 717.463 246.114 657.337 246.136 596.183C246.136 404.111 403.27 247.229 596.498 247.229C690.527 247.229 778.251 283.611 844.467 349.618C910.609 415.552 946.864 503.035 946.864 596.386C946.864 788.449 789.733 945.332 596.502 945.332H596.295C537.617 945.332 479.956 930.576 428.757 902.801C414.9 895.284 398.708 893.321 383.46 897.312L269.029 927.244L299.027 818.195Z" fill="black"/>
</svg>
